<svg width="1158" height="288" viewBox="0 0 1158 288" fill="none" xmlns="http://www.w3.org/2000/svg">
<path d="M110.979 224H55.4895V210.191H27.7024V196.298H13.8088V168.511H0V126.915H13.8088V99.1275H27.7024V85.2339H55.4895V71.3403H110.979V85.2339H138.766V99.1275H152.66V126.915H166.553V168.511H152.66V196.298H138.766V210.191H110.979V224ZM69.3831 210.191H97.0854V196.298H110.979V168.511H124.873V126.915H110.979V99.1275H97.0854V85.2339H69.3831V99.1275H55.4895V126.915H41.5959V168.511H55.4895V196.298H69.3831V210.191Z" fill="black"/>
<path d="M246.367 224H176.984V210.191H190.792V113.021H176.984V99.1275H190.792V85.2339H204.686V71.3403H218.579V57.4468H232.473V85.2339H246.367V99.1275H232.473V210.191H246.367V224ZM350.484 224H281.016V210.191H294.909V99.1275H281.016V85.2339H246.367V71.3403H308.803V85.2339H322.696V99.1275H336.59V210.191H350.484V224Z" fill="black"/>
<path d="M440.31 225.92C485.11 225.92 514.87 201.28 521.27 161.92H473.91C470.71 178.56 458.87 189.12 441.27 189.12C417.59 189.12 402.55 169.92 402.55 141.76C402.55 113.92 417.59 94.4 441.27 94.4C458.87 94.4 470.07 104.64 473.91 120.96H520.95C514.55 81.92 486.71 57.6 441.91 57.6C389.75 57.6 356.47 90.88 356.47 141.76C356.47 193.6 388.15 225.92 440.31 225.92Z" fill="black"/>
<path d="M577.192 224.96L573.032 235.84C568.552 247.04 564.712 249.92 553.192 249.92H528.232V288H572.072C597.672 288 605.992 274.56 616.232 247.36L689.192 59.52H640.872L601.832 176.64L561.832 59.52H513.832L577.192 224.96Z" fill="black"/>
<path d="M789.64 57.6C766.92 57.6 750.92 67.2 740.04 80.32V0H694.92V224H734.28L738.76 201.6C749.32 215.68 765.64 225.92 789.32 225.92C833.8 225.92 865.8 192.32 865.8 141.44C865.8 89.28 833.8 57.6 789.64 57.6ZM779.4 189.12C754.76 189.12 739.4 169.6 739.4 141.44C739.4 113.6 754.76 94.4 779.4 94.4C804.04 94.4 820.04 113.6 820.04 141.76C820.04 169.92 804.04 189.12 779.4 189.12Z" fill="black"/>
<path d="M962.537 225.92C1006.38 225.92 1034.86 200.32 1039.98 168.32H995.497C991.657 183.68 978.857 191.68 960.617 191.68C937.897 191.68 922.857 177.6 921.897 154.24V152H1041.26C1042.22 146.88 1042.54 141.44 1042.54 136.64C1041.9 88.32 1008.62 57.6 959.337 57.6C908.457 57.6 874.857 90.88 874.857 142.08C874.857 192.96 907.817 225.92 962.537 225.92ZM922.857 122.56C925.417 103.04 940.137 91.2 959.657 91.2C980.137 91.2 993.897 102.4 997.097 122.56H922.857Z" fill="black"/>
<path d="M1150.07 59.52C1124.47 59.52 1111.67 69.44 1102.71 84.16L1098.55 59.52H1057.59V224H1102.71V143.36C1102.71 118.4 1112.95 100.48 1139.83 100.48H1157.75V59.52H1150.07Z" fill="black"/>
<path d="M1034 266.685C1034 271.067 1037.39 274.369 1041.92 274.369C1046.43 274.369 1049.84 271.067 1049.84 266.685C1049.84 262.303 1046.43 259 1041.92 259C1037.39 259 1034 262.303 1034 266.685ZM1048.2 266.685C1048.2 270.29 1045.51 272.966 1041.92 272.966C1038.32 272.966 1035.66 270.29 1035.66 266.685C1035.66 263.08 1038.32 260.403 1041.92 260.403C1045.51 260.403 1048.2 263.08 1048.2 266.685ZM1043.99 267.829C1043.74 268.8 1043 269.383 1041.97 269.383C1040.45 269.383 1039.68 268.153 1039.68 266.663C1039.68 265.174 1040.43 263.943 1041.97 263.943C1042.98 263.943 1043.74 264.612 1043.97 265.519H1045.89C1045.61 263.339 1043.91 262.216 1041.94 262.216C1039.25 262.216 1037.69 264.289 1037.69 266.663C1037.69 269.038 1039.25 271.11 1041.94 271.11C1044.08 271.11 1045.61 269.944 1045.89 267.829H1043.99Z" fill="black"/>
<path d="M1055.91 274.24H1067V271.628H1060.42L1063.81 268.865C1065.71 267.332 1066.92 265.972 1066.92 263.749C1066.92 260.921 1065 259 1061.46 259C1058 259 1055.87 261.202 1055.87 264.051V264.483H1059V264.245C1059 262.605 1059.99 261.612 1061.43 261.612C1062.82 261.612 1063.79 262.389 1063.79 263.878C1063.79 265.109 1062.97 266.015 1061.65 267.095L1055.91 271.844V274.24Z" fill="black"/>
<path d="M1068.12 267.03C1068.12 271.628 1070.68 274.369 1074.33 274.369C1078 274.369 1080.57 271.628 1080.57 267.03V266.339C1080.57 261.828 1078 259 1074.33 259C1070.68 259 1068.12 261.828 1068.12 266.339V267.03ZM1077.46 266.922C1077.46 270.052 1076.19 271.736 1074.33 271.736C1072.5 271.736 1071.22 270.052 1071.22 266.922V266.447C1071.22 263.339 1072.5 261.634 1074.33 261.634C1076.19 261.634 1077.46 263.339 1077.46 266.447V266.922Z" fill="black"/>
<path d="M1081.55 274.24H1092.65V271.628H1086.06L1089.45 268.865C1091.35 267.332 1092.56 265.972 1092.56 263.749C1092.56 260.921 1090.64 259 1087.1 259C1083.65 259 1081.51 261.202 1081.51 264.051V264.483H1084.64V264.245C1084.64 262.605 1085.63 261.612 1087.08 261.612C1088.46 261.612 1089.43 262.389 1089.43 263.878C1089.43 265.109 1088.61 266.015 1087.29 267.095L1081.55 271.844V274.24Z" fill="black"/>
<path d="M1093.46 274.24H1104.55V271.628H1097.97L1101.36 268.865C1103.26 267.332 1104.47 265.972 1104.47 263.749C1104.47 260.921 1102.55 259 1099.01 259C1095.55 259 1093.41 261.202 1093.41 264.051V264.483H1096.54V264.245C1096.54 262.605 1097.54 261.612 1098.98 261.612C1100.37 261.612 1101.34 262.389 1101.34 263.878C1101.34 265.109 1100.52 266.015 1099.2 267.095L1093.46 271.844V274.24Z" fill="black"/>
<path d="M9.179 274H12.791L15.269 264.235L17.831 274H21.443L25.538 259.3H22.346L19.574 270.031L16.781 259.3H13.946L11.069 270.031L8.36 259.279L5.084 259.3L9.179 274ZM40.1337 266.65C40.1337 262.366 37.1727 259.174 32.8467 259.174C28.5207 259.174 25.5597 262.366 25.5597 266.65C25.5597 270.934 28.5207 274.126 32.8467 274.126C37.1727 274.126 40.1337 270.934 40.1337 266.65ZM28.7727 266.65C28.7727 263.878 30.3687 261.841 32.8467 261.841C35.3037 261.841 36.8997 263.878 36.8997 266.65C36.8997 269.422 35.3037 271.459 32.8467 271.459C30.3687 271.459 28.7727 269.422 28.7727 266.65ZM41.8312 274H44.9812V269.065H47.6272L50.1052 274H53.5912L50.6932 268.33C52.2262 267.595 53.2132 266.083 53.2132 264.193C53.2132 261.211 51.0502 259.3 47.8162 259.3H41.8312V274ZM47.5642 261.925C49.0552 261.925 50.0002 262.807 50.0002 264.193C50.0002 265.558 49.0552 266.44 47.5642 266.44H44.9812V261.925H47.5642ZM64.0008 274V271.291H58.1628V259.3H55.0128V274H64.0008ZM70.8219 274C75.3999 274 78.4449 270.934 78.4449 266.629C78.4449 262.303 75.3999 259.3 70.8219 259.3H65.4669V274H70.8219ZM68.6169 261.925H70.8219C73.6359 261.925 75.2109 263.815 75.2109 266.629C75.2109 269.422 73.6359 271.375 70.8219 271.375H68.6169V261.925ZM87.4447 269.233V266.818H80.0947V269.233H87.4447ZM89.3281 274H95.1871C98.7991 274 100.815 272.383 100.815 269.821C100.815 267.721 99.4711 266.692 97.5181 266.44C99.1981 266.083 100.29 265.033 100.29 263.185C100.29 260.728 98.3161 259.3 94.9141 259.3H89.3281V274ZM94.9981 261.778C96.3631 261.778 97.1401 262.471 97.1401 263.563C97.1401 264.655 96.3421 265.348 94.9981 265.348H92.4781V261.778H94.9981ZM95.2081 267.784C96.6991 267.784 97.5811 268.477 97.5811 269.674C97.5811 270.808 96.7201 271.501 95.2081 271.501H92.4781V267.784H95.2081ZM102.22 267.658C102.22 271.837 104.299 274.126 108.247 274.126C112.216 274.126 114.295 271.837 114.295 267.658V259.3H111.145V267.826C111.145 270.157 110.284 271.417 108.247 271.417C106.231 271.417 105.37 270.157 105.37 267.826V259.3H102.22V267.658ZM116.491 274H119.641V259.3H116.491V274ZM130.909 274V271.291H125.071V259.3H121.921V274H130.909ZM137.73 274C142.308 274 145.353 270.934 145.353 266.629C145.353 262.303 142.308 259.3 137.73 259.3H132.375V274H137.73ZM135.525 261.925H137.73C140.544 261.925 142.119 263.815 142.119 266.629C142.119 269.422 140.544 271.375 137.73 271.375H135.525V261.925ZM147.054 274H150.204V259.3H147.054V274ZM155.57 274V264.739L161.807 274H164.684V259.3H161.576V268.561L155.339 259.3H152.483V274H155.57ZM173.382 274.126C175.461 274.126 176.889 273.265 177.666 272.236L177.981 274H180.186V265.831H173.613V268.33H177.267V268.519C176.973 270.577 175.272 271.459 173.592 271.459C171.072 271.459 169.602 269.485 169.602 266.65C169.602 263.815 171.135 261.841 173.592 261.841C175.398 261.841 176.574 262.912 176.952 264.529H180.102C179.724 261.358 177.225 259.174 173.676 259.174C169.161 259.174 166.389 262.135 166.389 266.65C166.389 271.165 169.182 274.126 173.382 274.126ZM187.496 274H197.597V271.291H190.646V267.889H196.106V265.306H190.646V262.009H197.366V259.3H187.496V274ZM202.37 274V264.739L208.607 274H211.484V259.3H208.376V268.561L202.139 259.3H199.283V274H202.37ZM220.182 274.126C222.261 274.126 223.689 273.265 224.466 272.236L224.781 274H226.986V265.831H220.413V268.33H224.067V268.519C223.773 270.577 222.072 271.459 220.392 271.459C217.872 271.459 216.402 269.485 216.402 266.65C216.402 263.815 217.935 261.841 220.392 261.841C222.198 261.841 223.374 262.912 223.752 264.529H226.902C226.524 261.358 224.025 259.174 220.476 259.174C215.961 259.174 213.189 262.135 213.189 266.65C213.189 271.165 215.982 274.126 220.182 274.126ZM229.296 274H232.446V259.3H229.296V274ZM237.813 274V264.739L244.05 274H246.927V259.3H243.819V268.561L237.582 259.3H234.726V274H237.813ZM249.22 274H259.321V271.291H252.37V267.889H257.83V265.306H252.37V262.009H259.09V259.3H249.22V274ZM266.006 274H269.156V268.036H274.532V265.453H269.156V262.009H275.708V259.3H266.006V274ZM290.651 266.65C290.651 262.366 287.69 259.174 283.364 259.174C279.038 259.174 276.077 262.366 276.077 266.65C276.077 270.934 279.038 274.126 283.364 274.126C287.69 274.126 290.651 270.934 290.651 266.65ZM279.29 266.65C279.29 263.878 280.886 261.841 283.364 261.841C285.821 261.841 287.417 263.878 287.417 266.65C287.417 269.422 285.821 271.459 283.364 271.459C280.886 271.459 279.29 269.422 279.29 266.65ZM292.349 274H295.499V269.065H298.145L300.623 274H304.109L301.211 268.33C302.744 267.595 303.731 266.083 303.731 264.193C303.731 261.211 301.568 259.3 298.334 259.3H292.349V274ZM298.082 261.925C299.573 261.925 300.518 262.807 300.518 264.193C300.518 265.558 299.573 266.44 298.082 266.44H295.499V261.925H298.082ZM313.449 274H317.061L319.539 264.235L322.101 274H325.713L329.808 259.3H326.616L323.844 270.031L321.051 259.3H318.216L315.339 270.031L312.63 259.279L309.354 259.3L313.449 274ZM330.95 274H341.051V271.291H334.1V267.889H339.56V265.306H334.1V262.009H340.82V259.3H330.95V274ZM342.737 274H348.596C352.208 274 354.224 272.383 354.224 269.821C354.224 267.721 352.88 266.692 350.927 266.44C352.607 266.083 353.699 265.033 353.699 263.185C353.699 260.728 351.725 259.3 348.323 259.3H342.737V274ZM348.407 261.778C349.772 261.778 350.549 262.471 350.549 263.563C350.549 264.655 349.751 265.348 348.407 265.348H345.887V261.778H348.407ZM348.617 267.784C350.108 267.784 350.99 268.477 350.99 269.674C350.99 270.808 350.129 271.501 348.617 271.501H345.887V267.784H348.617ZM363.438 266.356C364.887 265.978 366 264.928 366 263.143C366 260.728 364.026 259.174 360.708 259.174C357.495 259.174 355.269 261.043 355.227 263.794H358.188C358.23 262.429 359.238 261.547 360.666 261.547C361.926 261.547 362.934 262.177 362.934 263.374C362.934 264.529 362.115 265.348 360.498 265.348H359.217V267.763H360.666C362.367 267.763 363.228 268.498 363.228 269.653C363.228 270.976 362.157 271.753 360.792 271.753C359.196 271.753 358.02 270.871 357.978 269.212H354.975C354.975 272.362 357.18 274.126 360.645 274.126C364.11 274.126 366.294 272.383 366.294 269.842C366.294 267.7 365.013 266.671 363.438 266.356Z" fill="black"/>
<path d="M248.487 7.37565C249.975 6.98746 251.119 5.90915 251.119 4.07602C251.119 1.5959 249.091 0 245.684 0C242.384 0 240.098 1.9194 240.055 4.74457H243.096C243.139 3.34277 244.174 2.43698 245.641 2.43698C246.935 2.43698 247.97 3.08397 247.97 4.31325C247.97 5.49939 247.129 6.34047 245.468 6.34047H244.153V8.82059H245.641C247.388 8.82059 248.272 9.57541 248.272 10.7616C248.272 12.1202 247.172 12.9182 245.77 12.9182C244.131 12.9182 242.923 12.0124 242.88 10.3087H239.796C239.796 13.5436 242.061 15.3552 245.619 15.3552C249.178 15.3552 251.42 13.5652 251.42 10.9557C251.42 8.75589 250.105 7.69915 248.487 7.37565Z" fill="black"/>
<path d="M258.276 15.2258C262.978 15.2258 266.105 12.0771 266.105 7.65602C266.105 3.21337 262.978 0.129397 258.276 0.129397H252.777V15.2258H258.276ZM256.012 2.82518H258.276C261.166 2.82518 262.783 4.76614 262.783 7.65602C262.783 10.5243 261.166 12.53 258.276 12.53H256.012V2.82518Z" fill="black"/>
<path d="M307.024 11.7752L310.172 7.07373H307.369L305.428 10.0714L303.012 7.52662L302.969 7.48349C305.708 6.34048 306.398 5.02493 306.398 3.55843C306.398 1.48807 304.522 0 302.171 0C299.411 0 297.448 1.6606 297.448 3.88192C297.448 5.13277 297.642 5.88758 298.634 7.11686C296.219 8.21674 295.507 9.83421 295.486 11.2576C295.464 14.0181 297.858 15.3552 300.877 15.3552C302.43 15.3552 303.681 14.8807 304.91 13.8671L305.169 14.1259C305.989 14.9885 307.002 15.2258 308.124 15.2258H310.129V12.7025H308.598C308.145 12.7025 307.865 12.6594 307.498 12.2712L307.024 11.7752ZM302.063 2.13506C302.926 2.13506 303.53 2.73891 303.53 3.62313C303.53 4.55048 302.969 5.3053 301.481 5.95228C300.748 5.15433 300.424 4.65831 300.424 3.79566C300.424 2.84675 301.093 2.13506 302.063 2.13506ZM301.071 13.0044C299.583 13.0044 298.634 12.2712 298.634 10.9341C298.634 10.0283 298.958 9.25192 299.993 8.6265L303.379 12.2281C302.667 12.7241 301.956 13.0044 301.071 13.0044Z" fill="black"/>
<path d="M344.163 15.2258H348.023L353.134 0.129397H349.792L346.082 11.3007L342.459 0.129397H339.03L344.163 15.2258Z" fill="black"/>
<path d="M353.788 15.2258H357.023V10.1577H359.74L362.285 15.2258H365.865L362.889 9.40288C364.463 8.64806 365.477 7.09529 365.477 5.15433C365.477 2.09193 363.255 0.129397 359.934 0.129397H353.788V15.2258ZM359.675 2.82518C361.207 2.82518 362.177 3.73096 362.177 5.15433C362.177 6.55614 361.207 7.46192 359.675 7.46192H357.023V2.82518H359.675Z" fill="black"/>
<path d="M395.002 15.2258H405.376V12.4437H398.237V8.94999H403.845V6.29734H398.237V2.91144H405.139V0.129397H395.002V15.2258Z" fill="black"/>
<path d="M405.598 15.2258H409.199L412.477 10.0499L415.648 15.2258H419.508L414.591 7.46192L419.271 0.129397H415.648L412.607 4.9171L409.674 0.129397H405.835L410.515 7.50505L405.598 15.2258Z" fill="black"/>
<path d="M420.371 15.2258H423.606V10.1577H426.518C429.796 10.1577 431.974 8.19517 431.974 5.15433C431.974 2.09193 429.796 0.129397 426.518 0.129397H420.371V15.2258ZM426.216 2.82518C427.726 2.82518 428.696 3.70939 428.696 5.15433C428.696 6.5777 427.726 7.46192 426.216 7.46192H423.606V2.82518H426.216Z" fill="black"/>
<path d="M433.14 15.2258H443.514V12.4437H436.375V8.94999H441.982V6.29734H436.375V2.91144H443.276V0.129397H433.14V15.2258Z" fill="black"/>
<path d="M444.814 15.2258H448.049V10.1577H450.766L453.311 15.2258H456.891L453.915 9.40288C455.489 8.64806 456.503 7.09529 456.503 5.15433C456.503 2.09193 454.281 0.129397 450.96 0.129397H444.814V15.2258ZM450.701 2.82518C452.233 2.82518 453.203 3.73096 453.203 5.15433C453.203 6.55614 452.233 7.46192 450.701 7.46192H448.049V2.82518H450.701Z" fill="black"/>
<path d="M457.919 15.2258H461.154V0.129397H457.919V15.2258Z" fill="black"/>
<path d="M463.064 15.2258H473.438V12.4437H466.299V8.94999H471.906V6.29734H466.299V2.91144H473.2V0.129397H463.064V15.2258Z" fill="black"/>
<path d="M477.908 15.2258V5.71506L484.313 15.2258H487.268V0.129397H484.076V9.64011L477.671 0.129397H474.738V15.2258H477.908Z" fill="black"/>
<path d="M495.791 15.3552C499.478 15.3552 502.088 13.1123 502.455 9.83421H499.198C498.81 11.5164 497.602 12.6163 495.769 12.6163C493.332 12.6163 491.887 10.5675 491.887 7.67758C491.887 4.76614 493.354 2.73891 495.812 2.73891C497.602 2.73891 498.81 3.83879 499.198 5.52096H502.476C502.088 2.24289 499.565 0 495.985 0C491.413 0 488.587 3.04084 488.587 7.67758C488.587 12.3143 491.305 15.3552 495.791 15.3552Z" fill="black"/>
<path d="M503.645 15.2258H514.018V12.4437H506.88V8.94999H512.487V6.29734H506.88V2.91144H513.781V0.129397H503.645V15.2258Z" fill="black"/>
<path d="M514.715 10.2655C514.736 13.3279 517.13 15.3552 520.969 15.3552C524.506 15.3552 526.835 13.4142 526.856 10.589C526.878 7.54819 524.592 6.7718 522.004 6.29734C519.502 5.82289 518.316 5.56409 518.316 4.33482C518.316 3.17024 519.308 2.58795 520.688 2.58795C522.263 2.58795 523.233 3.47216 523.384 4.74457H526.555C526.511 1.8547 524.247 0 520.688 0C517.281 0 515.06 1.89783 515.06 4.57204C515.06 7.63445 517.303 8.45397 519.847 8.92842C522.371 9.42445 523.6 9.68324 523.6 10.9557C523.6 12.1418 522.5 12.7888 521.012 12.7888C519.157 12.7888 517.993 11.7752 517.885 10.3087L514.715 10.2655Z" fill="black"/>
<path d="M555.397 2.91144H559.753V15.2258H562.988V2.91144H567.366V0.129397H555.397V2.91144Z" fill="black"/>
<path d="M581.812 7.67758C581.812 3.27807 578.771 0 574.328 0C569.886 0 566.845 3.27807 566.845 7.67758C566.845 12.0771 569.886 15.3552 574.328 15.3552C578.771 15.3552 581.812 12.0771 581.812 7.67758ZM570.144 7.67758C570.144 4.83084 571.783 2.73891 574.328 2.73891C576.851 2.73891 578.49 4.83084 578.49 7.67758C578.49 10.5243 576.851 12.6163 574.328 12.6163C571.783 12.6163 570.144 10.5243 570.144 7.67758Z" fill="black"/>
<path d="M610.629 10.2655C610.65 13.3279 613.044 15.3552 616.883 15.3552C620.42 15.3552 622.749 13.4142 622.771 10.589C622.792 7.54819 620.506 6.7718 617.918 6.29734C615.417 5.82289 614.23 5.56409 614.23 4.33482C614.23 3.17024 615.223 2.58795 616.603 2.58795C618.177 2.58795 619.148 3.47216 619.299 4.74457H622.469C622.426 1.8547 620.161 0 616.603 0C613.195 0 610.974 1.89783 610.974 4.57204C610.974 7.63445 613.217 8.45397 615.762 8.92842C618.285 9.42445 619.514 9.68324 619.514 10.9557C619.514 12.1418 618.414 12.7888 616.926 12.7888C615.072 12.7888 613.907 11.7752 613.799 10.3087L610.629 10.2655Z" fill="black"/>
<path d="M624.065 15.2258H627.3V8.99312H633.295V15.2258H636.53V0.129397H633.295V6.18951H627.3V0.129397H624.065V15.2258Z" fill="black"/>
<path d="M652.818 7.67758C652.818 3.27807 649.777 0 645.335 0C640.892 0 637.851 3.27807 637.851 7.67758C637.851 12.0771 640.892 15.3552 645.335 15.3552C649.777 15.3552 652.818 12.0771 652.818 7.67758ZM641.151 7.67758C641.151 4.83084 642.79 2.73891 645.335 2.73891C647.858 2.73891 649.497 4.83084 649.497 7.67758C649.497 10.5243 647.858 12.6163 645.335 12.6163C642.79 12.6163 641.151 10.5243 641.151 7.67758Z" fill="black"/>
<path d="M656.58 15.2258H660.29L662.835 5.19746L665.466 15.2258H669.175L673.38 0.129397H670.102L667.256 11.1497L664.387 0.129397H661.476L658.521 11.1497L655.739 0.107832L652.375 0.129397L656.58 15.2258Z" fill="black"/>
<path d="M244.994 34.2657V39.8729H248.229V34.2657L253.771 24.7765H250.17L246.611 30.966L243.225 24.7765H239.451L244.994 34.2657Z" fill="black"/>
<path d="M267.666 32.3247C267.666 27.9252 264.626 24.6471 260.183 24.6471C255.74 24.6471 252.699 27.9252 252.699 32.3247C252.699 36.7242 255.74 40.0023 260.183 40.0023C264.626 40.0023 267.666 36.7242 267.666 32.3247ZM255.999 32.3247C255.999 29.478 257.638 27.386 260.183 27.386C262.706 27.386 264.345 29.478 264.345 32.3247C264.345 35.1715 262.706 37.2634 260.183 37.2634C257.638 37.2634 255.999 35.1715 255.999 32.3247Z" fill="black"/>
<path d="M268.871 33.3599C268.871 37.6516 271.006 40.0023 275.06 40.0023C279.136 40.0023 281.271 37.6516 281.271 33.3599V24.7765H278.036V33.5324C278.036 35.9263 277.152 37.2202 275.06 37.2202C272.99 37.2202 272.105 35.9263 272.105 33.5324V24.7765H268.871V33.3599Z" fill="black"/>
<path d="M283.095 39.8729H286.33V34.8048H289.047L291.592 39.8729H295.172L292.196 34.05C293.77 33.2952 294.784 31.7424 294.784 29.8015C294.784 26.7391 292.563 24.7765 289.241 24.7765H283.095V39.8729ZM288.983 27.4723C290.514 27.4723 291.484 28.3781 291.484 29.8015C291.484 31.2033 290.514 32.1091 288.983 32.1091H286.33V27.4723H288.983Z" fill="black"/>
<path d="M304.073 39.8729V30.3622L310.479 39.8729H313.433V24.7765H310.241V34.2872L303.836 24.7765H300.903V39.8729H304.073Z" fill="black"/>
<path d="M315.357 39.8729H318.592V33.7481H324.113V31.0954H318.592V27.5586H325.32V24.7765H315.357V39.8729Z" fill="black"/>
<path d="M325.746 27.5586H330.103V39.8729H333.338V27.5586H337.716V24.7765H325.746V27.5586Z" fill="black"/>
<path d="M337.489 34.9127C337.511 37.9751 339.905 40.0023 343.743 40.0023C347.28 40.0023 349.609 38.0613 349.631 35.2362C349.653 32.1953 347.367 31.4189 344.779 30.9445C342.277 30.47 341.091 30.2112 341.091 28.9819C341.091 27.8174 342.083 27.2351 343.463 27.2351C345.037 27.2351 346.008 28.1193 346.159 29.3917H349.329C349.286 26.5018 347.022 24.6471 343.463 24.6471C340.056 24.6471 337.834 26.545 337.834 29.2192C337.834 32.2816 340.077 33.1011 342.622 33.5756C345.145 34.0716 346.375 34.3304 346.375 35.6028C346.375 36.7889 345.275 37.4359 343.787 37.4359C341.932 37.4359 340.767 36.4223 340.659 34.9558L337.489 34.9127Z" fill="black"/>
<path d="M351.795 36.4654C350.738 36.4654 349.897 37.2418 349.897 38.1907C349.897 39.2906 350.565 39.8298 351.363 39.8298C351.622 39.8298 351.838 39.7651 352.054 39.6572C352.075 39.7435 352.075 39.8729 352.075 39.9592C352.075 40.7355 351.407 41.4041 350.026 41.4257V43C352.485 42.9784 354.059 41.706 354.059 39.2906C354.059 37.63 353.153 36.4654 351.795 36.4654Z" fill="black"/>
<path d="M360.035 39.8729H363.27V24.7765H360.035V39.8729Z" fill="black"/>
<path d="M368.35 39.8729V30.3622L374.755 39.8729H377.71V24.7765H374.518V34.2872L368.113 24.7765H365.18V39.8729H368.35Z" fill="black"/>
<path d="M386.471 39.8729L387.635 36.5733H393.372L394.537 39.8729H398.009L392.531 24.7765H388.649L383.128 39.8729H386.471ZM390.482 28.2271L392.488 33.9637H388.498L390.482 28.2271Z" fill="black"/>
<path d="M410.049 40.0023C413.737 40.0023 416.346 37.7594 416.713 34.4813H413.456C413.068 36.1635 411.861 37.2634 410.027 37.2634C407.59 37.2634 406.146 35.2146 406.146 32.3247C406.146 29.4133 407.612 27.386 410.071 27.386C411.861 27.386 413.068 28.4859 413.456 30.1681H416.735C416.346 26.89 413.823 24.6471 410.243 24.6471C405.671 24.6471 402.846 27.688 402.846 32.3247C402.846 36.9615 405.563 40.0023 410.049 40.0023Z" fill="black"/>
<path d="M427.134 39.8729V37.0909H421.138V24.7765H417.903V39.8729H427.134Z" fill="black"/>
<path d="M428.208 39.8729H431.443V24.7765H428.208V39.8729Z" fill="black"/>
<path d="M439.952 40.0023C443.64 40.0023 446.249 37.7594 446.616 34.4813H443.359C442.971 36.1635 441.764 37.2634 439.93 37.2634C437.493 37.2634 436.048 35.2146 436.048 32.3247C436.048 29.4133 437.515 27.386 439.974 27.386C441.764 27.386 442.971 28.4859 443.359 30.1681H446.638C446.249 26.89 443.726 24.6471 440.146 24.6471C435.574 24.6471 432.749 27.688 432.749 32.3247C432.749 36.9615 435.466 40.0023 439.952 40.0023Z" fill="black"/>
<path d="M447.806 39.8729H451.041V35.8184L453.133 33.4462L457.49 39.8729H461.371L455.419 31.0739L461.005 24.7765H457.08L451.041 31.613V24.7765H447.806V39.8729Z" fill="black"/>
<path d="M461.849 38.2123C461.849 39.2475 462.626 40.0023 463.682 40.0023C464.717 40.0023 465.515 39.2475 465.515 38.2123C465.515 37.1556 464.717 36.4007 463.682 36.4007C462.626 36.4007 461.849 37.1556 461.849 38.2123Z" fill="black"/>
</svg>
