<svg width="481" height="120" viewBox="0 0 481 120" fill="none" xmlns="http://www.w3.org/2000/svg">
<path d="M46.1073 93.0629H23.0536V87.3259H11.5092V81.5537H5.73701V70.0093H0V52.7278H5.73701V41.1834H11.5092V35.4112H23.0536V29.639H46.1073V35.4112H57.6517V41.1834H63.4239V52.7278H69.1961V70.0093H63.4239V81.5537H57.6517V87.3259H46.1073V93.0629ZM28.8258 87.3259H40.3351V81.5537H46.1073V70.0093H51.8795V52.7278H46.1073V41.1834H40.3351V35.4112H28.8258V41.1834H23.0536V52.7278H17.2814V70.0093H23.0536V81.5537H28.8258V87.3259Z" fill="white"/>
<path d="M102.355 93.0629H73.5295V87.3259H79.2665V46.9556H73.5295V41.1834H79.2665V35.4112H85.0387V29.639H90.8109V23.8668H96.5831V35.4112H102.355V41.1834H96.5831V87.3259H102.355V93.0629ZM145.612 93.0629H116.751V87.3259H122.523V41.1834H116.751V35.4112H102.355V29.639H128.295V35.4112H134.067V41.1834H139.839V87.3259H145.612V93.0629Z" fill="white"/>
<path d="M182.931 93.8606C201.543 93.8606 213.907 83.6237 216.566 67.2712H196.89C195.561 74.1844 190.642 78.5717 183.33 78.5717C173.492 78.5717 167.243 70.5949 167.243 58.8955C167.243 47.3291 173.492 39.2194 183.33 39.2194C190.642 39.2194 195.295 43.4737 196.89 50.254H216.433C213.774 34.0344 202.208 23.9305 183.596 23.9305C161.925 23.9305 148.099 37.7569 148.099 58.8955C148.099 80.4329 161.26 93.8606 182.931 93.8606Z" fill="white"/>
<path d="M239.8 93.4617L238.072 97.9819C236.21 102.635 234.615 103.832 229.829 103.832H219.459V119.652H237.673C248.309 119.652 251.765 114.069 256.019 102.768L286.331 24.7281H266.256L250.037 73.3867L233.418 24.7281H213.476L239.8 93.4617Z" fill="white"/>
<path d="M328.063 23.9305C318.624 23.9305 311.977 27.9189 307.456 33.3697V0H288.711V93.0629H305.063L306.925 83.7566C311.312 89.6063 318.092 93.8606 327.93 93.8606C346.41 93.8606 359.705 79.9011 359.705 58.7626C359.705 37.0922 346.41 23.9305 328.063 23.9305ZM323.809 78.5717C313.572 78.5717 307.191 70.4619 307.191 58.7626C307.191 47.1962 313.572 39.2194 323.809 39.2194C334.046 39.2194 340.693 47.1962 340.693 58.8955C340.693 70.5949 334.046 78.5717 323.809 78.5717Z" fill="white"/>
<path d="M399.895 93.8606C418.109 93.8606 429.941 83.2248 432.068 69.9301H413.589C411.993 76.3116 406.675 79.6352 399.097 79.6352C389.658 79.6352 383.41 73.7856 383.011 64.0805V63.1498H432.6C432.999 61.0227 433.132 58.7626 433.132 56.7684C432.866 36.6934 419.039 23.9305 398.566 23.9305C377.427 23.9305 363.468 37.757 363.468 59.0285C363.468 80.167 377.161 93.8606 399.895 93.8606ZM383.41 50.9187C384.473 42.8089 390.589 37.8899 398.699 37.8899C407.207 37.8899 412.924 42.543 414.253 50.9187H383.41Z" fill="white"/>
<path d="M477.809 24.7281C467.174 24.7281 461.856 28.8495 458.133 34.9651L456.405 24.7281H439.388V93.0629H458.133V59.5603C458.133 49.1904 462.387 41.7454 473.555 41.7454H481V24.7281H477.809Z" fill="white"/>
<path d="M279.173 116H281.753L283.523 109.025L285.353 116H287.933L290.858 105.5H288.578L286.598 113.165L284.603 105.5H282.578L280.523 113.165L278.588 105.485L276.248 105.5L279.173 116ZM301.283 110.75C301.283 107.69 299.168 105.41 296.078 105.41C292.988 105.41 290.873 107.69 290.873 110.75C290.873 113.81 292.988 116.09 296.078 116.09C299.168 116.09 301.283 113.81 301.283 110.75ZM293.168 110.75C293.168 108.77 294.308 107.315 296.078 107.315C297.833 107.315 298.973 108.77 298.973 110.75C298.973 112.73 297.833 114.185 296.078 114.185C294.308 114.185 293.168 112.73 293.168 110.75ZM302.496 116H304.746V112.475H306.636L308.406 116H310.896L308.826 111.95C309.921 111.425 310.626 110.345 310.626 108.995C310.626 106.865 309.081 105.5 306.771 105.5H302.496V116ZM306.591 107.375C307.656 107.375 308.331 108.005 308.331 108.995C308.331 109.97 307.656 110.6 306.591 110.6H304.746V107.375H306.591ZM318.331 116V114.065H314.161V105.5H311.911V116H318.331ZM323.203 116C326.473 116 328.648 113.81 328.648 110.735C328.648 107.645 326.473 105.5 323.203 105.5H319.378V116H323.203ZM321.628 107.375H323.203C325.213 107.375 326.338 108.725 326.338 110.735C326.338 112.73 325.213 114.125 323.203 114.125H321.628V107.375ZM335.077 112.595V110.87H329.827V112.595H335.077ZM336.422 116H340.607C343.187 116 344.627 114.845 344.627 113.015C344.627 111.515 343.667 110.78 342.272 110.6C343.472 110.345 344.252 109.595 344.252 108.275C344.252 106.52 342.842 105.5 340.412 105.5H336.422V116ZM340.472 107.27C341.447 107.27 342.002 107.765 342.002 108.545C342.002 109.325 341.432 109.82 340.472 109.82H338.672V107.27H340.472ZM340.622 111.56C341.687 111.56 342.317 112.055 342.317 112.91C342.317 113.72 341.702 114.215 340.622 114.215H338.672V111.56H340.622ZM345.63 111.47C345.63 114.455 347.115 116.09 349.935 116.09C352.77 116.09 354.255 114.455 354.255 111.47V105.5H352.005V111.59C352.005 113.255 351.39 114.155 349.935 114.155C348.495 114.155 347.88 113.255 347.88 111.59V105.5H345.63V111.47ZM355.824 116H358.074V105.5H355.824V116ZM366.122 116V114.065H361.952V105.5H359.702V116H366.122ZM370.995 116C374.265 116 376.44 113.81 376.44 110.735C376.44 107.645 374.265 105.5 370.995 105.5H367.17V116H370.995ZM369.42 107.375H370.995C373.005 107.375 374.13 108.725 374.13 110.735C374.13 112.73 373.005 114.125 370.995 114.125H369.42V107.375ZM377.654 116H379.904V105.5H377.654V116ZM383.738 116V109.385L388.193 116H390.248V105.5H388.028V112.115L383.573 105.5H381.533V116H383.738ZM396.461 116.09C397.946 116.09 398.966 115.475 399.521 114.74L399.746 116H401.321V110.165H396.626V111.95H399.236V112.085C399.026 113.555 397.811 114.185 396.611 114.185C394.811 114.185 393.761 112.775 393.761 110.75C393.761 108.725 394.856 107.315 396.611 107.315C397.901 107.315 398.741 108.08 399.011 109.235H401.261C400.991 106.97 399.206 105.41 396.671 105.41C393.446 105.41 391.466 107.525 391.466 110.75C391.466 113.975 393.461 116.09 396.461 116.09ZM406.542 116H413.757V114.065H408.792V111.635H412.692V109.79H408.792V107.435H413.592V105.5H406.542V116ZM417.166 116V109.385L421.621 116H423.676V105.5H421.456V112.115L417.001 105.5H414.961V116H417.166ZM429.889 116.09C431.374 116.09 432.394 115.475 432.949 114.74L433.174 116H434.749V110.165H430.054V111.95H432.664V112.085C432.454 113.555 431.239 114.185 430.039 114.185C428.239 114.185 427.189 112.775 427.189 110.75C427.189 108.725 428.284 107.315 430.039 107.315C431.329 107.315 432.169 108.08 432.439 109.235H434.689C434.419 106.97 432.634 105.41 430.099 105.41C426.874 105.41 424.894 107.525 424.894 110.75C424.894 113.975 426.889 116.09 429.889 116.09ZM436.399 116H438.649V105.5H436.399V116ZM442.483 116V109.385L446.938 116H448.993V105.5H446.773V112.115L442.318 105.5H440.278V116H442.483ZM450.63 116H457.845V114.065H452.88V111.635H456.78V109.79H452.88V107.435H457.68V105.5H450.63V116Z" fill="white"/>
</svg>
